<?xml version="1.0" standalone="no"?>
<!DOCTYPE svg PUBLIC "-//W3C//DTD SVG 20010904//EN"
 "http://www.w3.org/TR/2001/REC-SVG-20010904/DTD/svg10.dtd">
<svg version="1.0" xmlns="http://www.w3.org/2000/svg"
 width="2032.000000pt" height="2032.000000pt" viewBox="0 0 2032.000000 2032.000000"
 preserveAspectRatio="xMidYMid meet">
<metadata>
Created by potrace 1.11, written by Peter Selinger 2001-2013
</metadata>
<g transform="translate(0.000000,2032.000000) scale(0.100000,-0.100000)"
fill="#000000" stroke="none">
<path d="M228 15116 c-97 -35 -150 -81 -199 -176 l-24 -45 0 -4735 0 -4735 34
-63 c38 -70 69 -100 145 -140 l51 -27 9920 0 9920 0 67 33 c70 34 107 72 149
152 l24 45 0 4735 0 4735 -34 63 c-38 70 -69 100 -145 140 l-51 27 -9910 2
c-8137 2 -9917 0 -9947 -11z m2102 -1366 l0 -100 -422 -2 -423 -3 0 -3485 0
-3485 428 -3 427 -2 0 -100 0 -100 -530 0 -530 0 0 3690 0 3690 525 0 525 0 0
-100z m16700 -3590 l0 -3690 -525 0 -525 0 0 100 0 100 420 0 420 0 0 3490 0
3490 -420 0 -420 0 0 100 0 100 525 0 525 0 0 -3690z m-13655 2402 c192 -279
565 -820 828 -1202 264 -382 554 -803 645 -935 91 -132 229 -332 307 -445 78
-113 238 -344 355 -515 118 -170 273 -395 345 -500 72 -104 212 -307 310 -450
99 -143 221 -320 272 -394 l93 -134 0 2541 0 2542 105 0 105 0 0 -2720 0
-2720 -103 0 -103 0 -84 123 c-129 189 -745 1086 -915 1332 -83 121 -236 344
-340 495 -104 151 -248 361 -320 465 -72 105 -515 749 -985 1433 -469 683
-857 1242 -862 1242 -4 0 -8 -1145 -8 -2545 l0 -2545 -100 0 -100 0 0 2720 0
2720 103 0 102 0 350 -508z m6905 -1057 c0 -1211 3 -1565 12 -1565 7 0 715
704 1574 1565 l1562 1566 138 -3 137 -3 -903 -910 c-497 -500 -1041 -1048
-1209 -1217 l-304 -307 59 -69 c32 -38 439 -505 904 -1037 1490 -1707 1640
-1880 1640 -1888 0 -4 -55 -6 -122 -5 l-123 3 -628 720 c-346 396 -686 786
-755 866 -611 703 -1117 1279 -1123 1277 -6 -3 -780 -705 -857 -778 l-22 -21
0 -1032 0 -1032 -92 0 -93 0 -3 2718 -2 2717 105 0 105 0 0 -1565z"/>
</g>
</svg>
