<svg enable-background="new 0 0 500 50" viewBox="0 0 500 50" xmlns="http://www.w3.org/2000/svg"><path d="m6.9 7.35.01 17.85 12.29-5.64c5.86-2.76 5.86-4.33 5.86-6.49 0-3.79-2.95-5.72-8.78-5.72zm0 35.3h11.47c7.81 0 9.55-3.94 9.63-7.13.09-3.39-3.18-7.91-6.68-9.68l-14.42 6.63zm11.47 6.54h-18.37v-48.38h16.28c11.55 0 15.67 6.33 15.67 12.26 0 3.95-1.28 6.78-4.45 9.26 4.37 3.37 7.52 8.56 7.39 13.36-.26 9.86-9.06 13.5-16.52 13.5m310.24-13c0 8.13-6.38 13.81-15.51 13.81-10.17 0-16.02-6.34-16.08-6.4l-.22-.25 4.25-5.69.33.33c.05.05 5.03 5 11.85 5 3.9 0 7.83-2.04 7.83-6.61 0-4.44-4.54-6.42-9.78-8.71-6.22-2.71-13.28-5.79-13.28-14 0-7.79 6.78-13.67 15.78-13.67 8.9 0 13.58 4.71 13.77 4.91l.21.21-3.43 6.24-.38-.35c-.04-.04-4.35-4-10.18-4-4.61 0-8.23 2.87-8.23 6.54 0 4.1 4.34 5.92 9.36 8.03 6.42 2.7 13.71 5.76 13.71 14.61m-270.99-8.09h17.06v-6.6h-17.06v-14.09h20.97v-6.6h-28.44v48.38h29.59v-6.6h-22.12zm434.9-27.29v31.34c0 1.57.17 3.72.3 5.2-.81-1.5-2.11-3.81-3.21-5.43l-21.17-30.94-.12-.18h-7.22v48.38h7.48v-31.26c0-1.6-.17-3.77-.3-5.26.81 1.51 2.11 3.84 3.21 5.49l21.36 31.04h7.15v-48.38zm-56.84 20.89h-23.87v-20.89h-7.48v48.38h7.48v-20.89h23.87v20.89h7.48v-48.38h-7.48zm-150.09 3.23c0 14.96-9.4 24.26-24.54 24.26h-16.18v-48.38h16.18c15.14 0 24.54 9.24 24.54 24.12m-7.68 0c0-10.98-6.48-17.53-17.33-17.53h-8.23v35.19h8.23c10.85 0 17.33-6.6 17.33-17.66m111.72-.27c0 14.21-10.9 25.34-24.81 25.34-13.95 0-24.88-11.13-24.88-25.34-.01-13.83 10.93-24.66 24.87-24.66 13.92 0 24.82 10.83 24.82 24.66m-7.69 0c0-9.98-7.52-17.8-17.13-17.8-9.64 0-17.2 7.82-17.2 17.8 0 10.32 7.55 18.4 17.2 18.4 9.61 0 17.13-8.08 17.13-18.4m-262.27 5.47 10.44 19.06h-8.47l-10.04-18.93h-9.54v18.94h-7.48v-48.39h14.96c5.05 0 7.2.42 9.04 1.1 5.11 1.92 8.29 6.99 8.29 13.25 0 6.13-3.28 11.21-8.39 13.1.25.34.66.94 1.19 1.87m-.41-14.7c0-3.28-1.23-5.7-3.57-7-1.2-.63-2.69-1.03-6.35-1.03h-7.29v16.25h9.17c4.96 0 8.04-3.15 8.04-8.22m31.81 12.67h17.06v-6.6h-17.06v-14.09h20.97v-6.6h-28.45v48.38h29.6v-6.6h-22.12zm68.38 4.04c0 1.57.17 3.72.3 5.2-.81-1.5-2.11-3.81-3.21-5.43l-21.17-30.93-.12-.18h-7.22v48.38h7.48v-31.26c0-1.6-.17-3.77-.3-5.26.81 1.51 2.11 3.84 3.21 5.49l21.36 31.04h7.15v-48.38h-7.48z"/></svg>