<svg viewBox="0 0 32 32" xmlns="http://www.w3.org/2000/svg"><g fill="none" fill-rule="evenodd" stroke="#3c455c"><path d="m11.7014354 7.72646259c-3.78382221-.68265888-6.88808611-.03276311-8.08606641 2.02262452-.88880538 1.52493289-.57658046 3.56319419.66014439 5.69991079m2.05091395 2.7396733c1.56551095 1.7041505 3.64025187 3.3594308 6.08567127 4.7579749 5.8293329 3.3338163 11.8809513 4.1312602 14.7548236 2.1901767m2.6787197-1.080308c0-.8593336-.703262-1.5559611-1.5707798-1.5559611-.8675177 0-1.5707798.6966275-1.5707798 1.5559611s.7032621 1.5559612 1.5707798 1.5559612c.8675178 0 1.5707798-.6966276 1.5707798-1.5559612z"/><path d="m26.1017264 17.699802c2.477301-2.8989355 3.4546628-5.8787321 2.2591774-7.9298393-.8742503-1.49996058-2.7637195-2.25140609-5.1916414-2.28268355m-3.4722051.37355923c-2.2916278.48635929-4.8021739 1.4437115-7.2727913 2.85666642-6.00137808 3.4322095-9.77024989 8.4106784-9.25873832 11.8630172m.51949109 3.031954c.86751773 0 1.5707798-.6966276 1.5707798-1.5559612s-.70326207-1.5559611-1.5707798-1.5559611-1.5707798.6966275-1.5707798 1.5559611.70326207 1.5559612 1.5707798 1.5559612z"/><path d="m10.1856596 25.0699995c1.2953354 3.5829197 3.4143253 5.9176149 5.8085604 5.9176149 1.7350578 0 3.3255669-1.226096 4.5628159-3.2648032m1.4938862-3.3864097c.6864235-2.1728563 1.0832061-4.741573 1.0832061-7.4938882 0-6.7545267-2.3897151-12.40328873-5.5855338-13.80894217m-1.5543744 1.21980213c.8675178 0 1.5707798-.69662752 1.5707798-1.55596112s-.703262-1.55596113-1.5707798-1.55596113c-.8675177 0-1.5707798.69662753-1.5707798 1.55596113s.7032621 1.55596112 1.5707798 1.55596112z"/><path d="m16.2975137 18.2334955c-.775573.1659953-1.539668-.3222453-1.7075722-1.0905015-.1672483-.7682562.3253143-1.5251428 1.1008872-1.691463.7755729-.1659953 1.539668.3222453 1.7075722 1.0905015.1675762.7682562-.3253143 1.5251428-1.1008872 1.691463z"/></g></svg>