<svg viewBox="0 200 652 252" xmlns="http://www.w3.org/2000/svg"><g fill="#313e49"><path d="m25.7 359c0 11.4 9.4 20.6 20.8 20.6v-15.9c-2.6 0-4.7-2.1-4.7-4.8v-48.7h-16v48.8"/><path d="m133.6 315.5h16v10.2h.3c3.5-7.4 10.5-11.8 19-11.8 2 0 3.9.4 5.7.9v15.5c-2.7-.7-5.2-1.2-7.8-1.2-15.1 0-17.2 12.7-17.2 16.2v34.3h-16z"/><path d="m208.3 366.8c11.8 0 18.8-9.2 18.8-19.2s-7.1-19.2-18.8-19.2-18.8 9.2-18.8 19.2 7 19.2 18.8 19.2m0-52.9c19.4 0 34.9 13.5 34.9 33.6 0 20.2-15.5 33.7-34.9 33.7s-34.9-13.5-34.9-33.7c0-20.1 15.5-33.6 34.9-33.6"/><path d="m285.7 333.3c-3.1-4.3-7.1-6.5-12.6-6.5-4.3 0-9.3 2-9.3 6.8 0 11.5 34.6 2.1 34.6 27.1 0 15.2-14.6 20.6-27.6 20.6-9.9 0-18.4-2.5-25-9.9l10.7-10c4.1 4.6 8.4 7.9 15.2 7.9 4.7 0 10.7-2.3 10.7-7.3 0-13.2-34.6-2.8-34.6-27.3 0-14.3 12.8-20.7 25.8-20.7 8.6 0 17.6 2.7 22.8 9.7z"/><path d="m338.6 328.4c-11.7 0-18.8 9.2-18.8 19.2s7.1 19.2 18.8 19.2c11.8 0 18.8-9.2 18.8-19.2s-7-19.2-18.8-19.2m-34.3-12.9h15.2v9.6h.3c4.7-7.7 13.1-11.2 22-11.2 19.8 0 31.6 14.7 31.6 33.6 0 19-12.7 33.7-31 33.7-12 0-18.4-5.6-21.8-9.7h-.4v38.6h-16v-94.6"/><path d="m427.6 341.2c-.1-9.4-6.3-15.2-16.3-15.2-9.5 0-15.4 6-16.6 15.2zm-32.9 12c1.1 9.5 8.3 15.2 17.2 15.2 8 0 13.2-3.7 17.2-8.7l11.5 8.7c-7.5 9.2-16.9 12.8-27.1 12.8-19.4 0-34.8-13.5-34.8-33.7s15.5-33.6 34.8-33.6c17.9 0 30 12.6 30 34.8v4.4h-48.8"/><path d="m495.8 334.8c-3.7-3.9-7.9-6.4-12.2-6.4-11.8 0-18.8 9.2-18.8 19.2s7.1 19.2 18.8 19.2c4.9 0 9.5-2.1 12.4-6l10.7 11.5c-6.5 6.6-17.5 9-23.1 9-19.4 0-34.9-13.5-34.9-33.7s15.5-33.6 34.9-33.6c8.2 0 17.1 2.9 23.2 9.7z"/><path d="m508.9 329.2v-13.6h13.2v-18.6h16v18.6h17.6v13.6h-17.6v28c0 6.4 1.9 10.4 8.9 10.4 2.8 0 6.7-.5 8.7-2v13.5c-3.3 1.6-8.9 2.1-12.7 2.1-17 0-21-7.6-21-22.7v-29.4h-13.1"/><path d="m566.3 371.7h1c.5 0 1.3 0 1.3-.8s-.8-.9-1.3-.9h-1zm-1.9-3.3h2.5c1.8 0 3.6.4 3.6 2.3 0 1.4-.9 2.3-1.8 2.4l2 3.1h-2.1l-1.8-3h-.5v3h-2v-7.8zm2.9 9.9c3.1 0 5.6-2.6 5.6-5.8 0-3.3-2.5-5.8-5.6-5.8s-5.6 2.6-5.6 5.8 2.5 5.8 5.6 5.8m0-13.4c4.2 0 7.5 3.4 7.5 7.5 0 4.2-3.4 7.5-7.5 7.5-4.2 0-7.5-3.4-7.5-7.5s3.4-7.5 7.5-7.5"/><path d="m87.1 326.1h-10.1v-26.5h12c9.1 0 20.2 1.5 20.2 13.1 0 12.9-12.5 13.4-22.1 13.4m4.8-41h-39v14.5h7.3v80h16.8v-39.1h12c20 0 37.8-4.3 37.8-28 0-21-16.6-27.4-34.9-27.4"/></g><path d="m25.7 285.1h16v14.5h-16z" fill="#80bc26"/><path d="m578.6 259h6.3v-5.4h-6.3zm23.9 0h-4.4v9.9h3.7c3.6 0 8.3-.2 8.3-5 0-4.4-4.2-4.9-7.6-4.9m-2.9 31.5c-4.3 0-7.9-3.5-7.9-7.9v-23.6h-2.7v-5.4h14.6c6.8 0 13.1 2.4 13.1 10.2 0 8.9-6.7 10.5-14.2 10.5h-4.4v8.4c0 .8.7 1.5 1.5 1.5h18.2c.8 0 1.5-.7 1.5-1.5v-32c0-.8-.7-1.5-1.5-1.5h-42.3c-.8 0-1.5.7-1.5 1.5v41.1c0 .8.7 1.5 1.5 1.5h16.2v6.4h-16.2c-4.3 0-7.9-3.5-7.9-7.9v-41.1c0-4.3 3.5-7.9 7.9-7.9h42.3c4.3 0 7.9 3.5 7.9 7.9v32c0 4.3-3.5 7.9-7.9 7.9h-18.2zm-12.8-2.4h-.1c-4.3 0-8-3.5-8-7.8v-17.3h6.3v17.3c0 1 .8 1.8 1.8 1.8z" fill="#80bc26"/></svg>