<svg viewBox="0 0 61 53" xmlns="http://www.w3.org/2000/svg"><path d="m0 0c-.502.881-1.066 1.726-1.681 2.534l-1.063-3.507-.042-.147-.026-.082h-3.566c-.808-.003-1.463-.576-1.463-1.282 0-.277.097-.538.287-.762l.238-.284 2.483-3.027.082-.102c.658-.87.828-1.993.468-3.178-.363-1.204-1.233-2.333-2.446-3.177-1.211-.845-2.628-1.31-3.989-1.31h-5.485l.043.145.076.249 1.089 3.597.045.145.023.082h3.52l.063-.003c.808 0 1.462.573 1.462 1.279 0 .277-.099.541-.286.762l-.105.119-2.622 3.201-.085.099c-.657.873-.825 1.995-.465 3.18.363 1.202 1.233 2.33 2.444 3.178 1.213.845 2.63 1.309 3.991 1.309h4.952c-5.213 6.483-13.856 10.29-22.036 9.859l-1.279-4.215-.045-.147-.023-.082h-5.499l.045.147.074.249.898 2.963c-10.493-3.504-14.445-14.25-8.81-24.14l.953-1.52 5.051 16.668.046.148.022.079h5.499l-.045-.145-.074-.249-5.079-16.753-.043-.147-.025-.08h-5.018c6.222-8.662 18.414-13.053 28.369-9.881 10.696 3.41 14.76 14.258 9.077 24.228zm-16.872-9.837c-.365-1.204-1.236-2.333-2.449-3.177-1.21-.845-2.628-1.313-3.988-1.313h-5.488l.045.148.077.249 1.088 3.597.046.145.025.082h3.518l.062-.003c.808 0 1.463.573 1.463 1.279 0 .277-.099.541-.286.762l-.105.119-2.622 3.201-.088.104c-.655.871-.822 1.993-.465 3.175.366 1.202 1.236 2.33 2.449 3.178 1.21.845 2.628 1.312 3.988 1.312h5.477l-.043-.15-.076-.249-1.089-3.595-.045-.147-.025-.082h-3.569c-.805-.003-1.46-.576-1.46-1.282 0-.277.099-.538.286-.762l.238-.284 2.483-3.027.08-.096c.66-.873.83-1.996.473-3.184" fill="#002c55" transform="matrix(1.39052 0 0 -1.38858 57.429 17.927)"/></svg>