<svg height="954.32001" viewBox="0 0 954.31 954.32002" width="954.31" xml:space="preserve" xmlns="http://www.w3.org/2000/svg" xmlns:xlink="http://www.w3.org/1999/xlink"><clipPath id="a"><path d="m.03 802.205h572.568v-802.175h-572.568v802.175z"/></clipPath><g transform="matrix(1.25 0 0 -1.25 -596.45875 1599.2088)"><g clip-path="url(#a)" transform="matrix(8 0 0 8 -3340.169 -3611.377)"><path d="m477.167 515.911h95.431v95.432h-95.431z" fill="#00aeef"/></g><path d="m477.167 517.415h761.952v761.952h-761.952z" fill="#00aeef"/><g fill="#fff"><path d="m0 0v-15.903h-13.245v15.903h-9.941v11.131h33.108v-11.131" transform="matrix(8 0 0 8 815.05516 1037.2309)"/><path d="m0 0h17.127l-15.936-15.917 16.759-15.92h-17.109l-15.911 15.92" transform="matrix(8 0 0 8 949.40716 1037.3432)"/><path d="m0 0-.177-1.306h-2.625v-7.723h-1.585v7.723h-2.803l.165 1.306" transform="matrix(8 0 0 8 685.74308 742.03124)"/><path d="m0 0c-.279-.085-.552-.146-.818-.184s-.547-.057-.843-.057c-.575 0-1.052.074-1.433.221-.38.149-.685.36-.913.634-.228.275-.391.603-.488.983-.097.381-.146.804-.146 1.268v.647c0 .465.061.888.184 1.268s.311.706.565.977c.253.27.576.477.969.621.393.143.864.215 1.414.215.33 0 .641-.025.932-.076.292-.05.56-.114.806-.19l-.254-1.116c-.169.051-.355.093-.558.127s-.427.051-.672.051c-.668 0-1.137-.144-1.408-.431-.27-.288-.406-.779-.406-1.471v-.533c0-.727.146-1.24.438-1.541.292-.3.78-.45 1.464-.45.237 0 .472.015.704.045.233.029.45.065.653.107" transform="matrix(8 0 0 8 776.02292 670.71916)"/><path d="m0 0v9.308l1.547.215v-3.512c.211.237.477.416.799.539.321.122.676.184 1.065.184.355 0 .678-.047.97-.14s.543-.234.754-.425c.212-.19.376-.429.495-.716.118-.288.177-.626.177-1.014v-4.439h-1.547v4.02c0 .533-.097.911-.291 1.135-.195.224-.52.336-.977.336-.499 0-.864-.131-1.096-.393-.233-.262-.349-.681-.349-1.255v-3.843" transform="matrix(8 0 0 8 790.32708 669.79876)"/><path d="m0 0v6.493l1.331.19.115-.811c.211.279.483.492.817.64s.717.222 1.148.222c.355 0 .678-.047.97-.14s.543-.234.754-.425c.212-.19.376-.429.495-.716.118-.288.177-.626.177-1.014v-4.439h-1.547v4.02c0 .533-.097.911-.291 1.135-.195.224-.52.336-.977.336-.498 0-.864-.131-1.096-.393-.233-.262-.349-.681-.349-1.255v-3.843" transform="matrix(8 0 0 8 852.71092 669.79876)"/><path d="m0 0 1.547.216v-6.683h-1.547zm.774 2.752c.329 0 .568-.074.716-.222s.222-.357.222-.628c0-.27-.074-.48-.222-.627-.148-.148-.387-.222-.716-.222-.33 0-.569.074-.717.222-.148.147-.222.357-.222.627 0 .271.074.48.222.628s.387.222.717.222" transform="matrix(8 0 0 8 915.09516 721.53508)"/><path d="m0 0v-3.025h-1.484v9.308l1.484.215v-5.357l2.536 2.416h1.75l-3.081-2.936 3.195-3.646h-1.813" transform="matrix(8 0 0 8 955.97508 693.999)"/><path d="m0 0c-.102.025-.224.05-.368.076-.144.025-.292.037-.444.037-.558 0-.961-.145-1.211-.437-.249-.292-.374-.738-.374-1.338v-3.576h-1.546v6.493l1.331.19.114-.888c.211.288.473.505.786.654.313.147.689.221 1.129.221.169 0 .318-.01.45-.031.131-.022.268-.057.412-.108" transform="matrix(8 0 0 8 1086.2231 711.70308)"/><path d="m0 0 1.547.216v-6.683h-1.547zm.774 2.751c.329 0 .568-.074.716-.222s.222-.357.222-.627c0-.271-.074-.48-.222-.628s-.387-.222-.716-.222c-.33 0-.569.074-.717.222s-.221.357-.221.628c0 .27.073.479.221.627s.387.222.717.222" transform="matrix(8 0 0 8 699.343 818.39884)"/><path d="m0 0c.224.3.594.45 1.109.45.431 0 .748-.1.951-.298.192-.188.311-.458.359-.809l-2.755-1.226v.406c0 .684.111 1.177.336 1.477m3.163.919c-.473.448-1.145.672-2.016.672-.524 0-.974-.076-1.35-.228s-.687-.368-.932-.647-.425-.613-.539-1.002c-.114-.388-.171-.82-.171-1.293v-.532c0-.525.052-.983.158-1.376.106-.394.283-.725.533-.996.249-.27.575-.473.976-.608.402-.136.898-.203 1.49-.203.186 0 .376.006.571.019.194.012.384.032.57.057s.357.055.514.089c.156.033.293.071.412.114l.203 1.103c-.356-.068-.668-.114-.938-.14-.271-.025-.546-.038-.825-.038-.625 0-1.095.072-1.407.216-.313.144-.524.401-.634.773l3.981 1.763c.076.034.114.093.114.177v.178c0 .82-.236 1.454-.71 1.902" transform="matrix(8 0 0 8 740.58292 807.79876)"/><path d="m0 0c.224.3.594.45 1.11.45.431 0 .748-.099.951-.298.192-.188.311-.458.359-.808l-2.756-1.227v.406c0 .685.112 1.177.336 1.477m3.164.919c-.473.448-1.145.672-2.016.672-.525 0-.974-.076-1.351-.227-.376-.153-.687-.368-.932-.647s-.425-.613-.538-1.002c-.115-.389-.172-.82-.172-1.293v-.533c0-.524.053-.983.159-1.376.105-.393.283-.725.532-.995.25-.271.575-.474.977-.609.401-.135.898-.203 1.49-.203.186 0 .376.007.57.02.195.012.385.031.571.056.186.026.357.055.513.089.157.034.294.072.413.114l.203 1.103c-.356-.067-.668-.113-.939-.139s-.545-.038-.824-.038c-.626 0-1.095.072-1.408.216-.312.143-.524.401-.634.773l3.982 1.762c.076.034.114.094.114.178v.177c0 .82-.237 1.454-.71 1.902" transform="matrix(8 0 0 8 697.25508 710.935)"/><path d="m0 0c.224.3.594.45 1.11.45.431 0 .748-.099.951-.298.192-.188.311-.458.359-.808l-2.756-1.227v.406c0 .685.112 1.177.336 1.477m3.164.919c-.473.448-1.145.672-2.016.672-.525 0-.975-.076-1.351-.227-.376-.153-.687-.368-.932-.647s-.425-.613-.539-1.002-.171-.82-.171-1.293v-.533c0-.524.053-.983.159-1.376.105-.393.283-.725.532-.995.25-.271.575-.474.977-.609.401-.135.898-.203 1.49-.203.185 0 .376.007.57.02.195.012.385.031.571.056.185.026.357.055.513.089.157.034.294.072.413.114l.202 1.103c-.355-.067-.667-.113-.938-.139s-.545-.038-.824-.038c-.626 0-1.095.072-1.408.216-.312.143-.524.401-.634.773l3.982 1.762c.076.034.114.094.114.178v.177c0 .82-.237 1.454-.71 1.902" transform="matrix(8 0 0 8 1011.5112 710.935)"/><path d="m0 0h1.331c.397 0 .746.046 1.046.139s.549.247.748.463.349.505.45.869c.102.363.152.815.152 1.356v.749c0 .54-.048.993-.145 1.356-.098.364-.246.653-.444.869-.199.215-.446.368-.742.456-.296.089-.647.134-1.052.134h-1.344zm-1.369 7.709c.068 0 2.84-.002 2.84-.002.76 0 1.39-.099 1.889-.302.498-.203.896-.484 1.192-.844.296-.359.502-.786.621-1.28.118-.495.178-1.033.178-1.617v-.926c0-.6-.064-1.147-.191-1.641-.127-.495-.338-.922-.634-1.281s-.695-.639-1.198-.837c-.503-.199-1.126-.298-1.87-.298h-3.043v8.802c0 .126.122.226.216.226" transform="matrix(8 0 0 8 642.23892 777.21476)"/></g></g></svg>