<svg height="834.6893" viewBox="0 0 1171 834.6893" width="1171" xmlns="http://www.w3.org/2000/svg"><path d="m1124.08 191.421-471.42 202.624 67.93 187.334 48.549 133.864 12.205 33.668 108.634 41.233 3.928 1.489 113.479 43.056 54.474-23.298 74.21-31.898 34.931-15.014z" fill="#f2f2f2"/><path d="m1136.436 760.209-.097 4.856-.27 14.428-74.21 31.898-50.114 21.539-2.115-7.068-2.245 8.827-113.479-43.056-1.759-41.568v-.01l-.388-9.238 222.307-14.924 4.36 6.68.863 1.327z" fill="#2f2e41"/><path d="m989.81 351.24823s-14.91955 53.71037-17.90346 53.71037 28.34714 41.77473 28.34714 41.77473l46.25059 25.36322 16.4115-68.62991s-14.91954-37.29886-11.93563-56.69427z" fill="#ffb8b8" transform="translate(-14.5 -32.65535)"/><circle cx="999.18124" cy="284.27792" fill="#ffb8b8" r="55.20232"/><path d="m1021.141 431.81378-44.10642-38.30378-26.01543 12.94057-56.69428 35.80691s14.91955 322.2622 7.45977 334.19784c0 0 16.4115 37.29887 113.38856 14.91955s122.34028-25.36323 122.34028-25.36323l-20.88737-196.938 25.36323-123.83224-85.19544-59.57505-26.70116 46.14746z" fill="#b37c57" transform="translate(-14.5 -32.65535)"/><path d="m857.026 557.138s-22.37931 70.12187-5.96781 77.58164 29.83909 4.47586 29.83909 4.47586l25.36323-61.17014z" fill="#ffb8b8" transform="translate(-14.5 -32.65535)"/><path d="m1167.35257 545.20233 13.42759 62.6621v126.81614s-19.39541 80.56555-34.315 59.67819-14.61143-27.50169-14.61143-27.50169l19.0873-29.19259-8.95173-119.35637-23.78572-56.93648z" fill="#ffb8b8" transform="translate(-14.5 -32.65535)"/><path d="m1065.89965 261.731s-17.90345-38.79082-52.21841-29.83909-53.71037 22.37932-55.20232 35.80691.746 33.569.746 33.569 3.72988-27.60116 27.60116-21.63334 61.17014 1.49195 61.17014 1.49195l5.96782 53.71037s6.71379-9.69771 14.17357-3.72989 21.63332-57.44032-2.23796-69.37591z" fill="#2f2e41" transform="translate(-14.5 -32.65535)"/><path d="m1104.095 524.866 5.396 28.057 52.876-14.029-9.712-25.898z" fill="#3f3d56"/><path d="m841.544 523.987-8.43 27.299 53.263 12.481 3.606-27.424z" fill="#3f3d56"/><path d="m1107.67438 442.25746 34.315 2.98391s38.79082 105.92878 34.315 108.91269-58.18623 20.88736-65.646 16.4115-2.984-128.3081-2.984-128.3081z" fill="#b37c57" transform="translate(-14.5 -32.65535)"/><path d="m906.26051 445.24137-11.93564-2.98391s-22.37932 28.34714-29.83909 61.17014-17.90346 65.646-11.93564 65.646 59.67819 20.8874 59.67819 20.8874z" fill="#b37c57" transform="translate(-14.5 -32.65535)"/><circle cx="1012.37074" cy="409.40103" fill="#3f3d56" r="10.79111"/><path d="m1110.18567 632.852-115.2682 36.33839-47.04522-149.2311q66.62277-9.34211 115.26817-36.33838c6.01072 50.90347 21.36958 100.68595 47.04525 149.23109z" fill="#e6e6e6" transform="translate(-14.5 -32.65535)"/><path d="m1099.39456 649.03867-115.2682 36.3384-47.04521-149.23107q66.62275-9.34211 115.26816-36.33838c6.01069 50.90338 21.36961 100.6859 47.04525 149.23105z" fill="#fff" transform="translate(-14.5 -32.65535)"/><path d="m864.48578 591.45292s-17.90346 32.823-13.42759 43.26669 41.77473 16.4115 46.25059 16.4115 58.18622-11.93564 58.18622-11.93564 82.05751-38.79082 58.18623-58.18623-68.62991 26.85519-68.62991 26.85519h-35.8069l-19.39542-13.4276z" fill="#ffb8b8" transform="translate(-14.5 -32.65535)"/><path d="m1 134.83258h195v87.16742h-195z" fill="#f2f2f2"/><path d="m676 418h34v30h-34z" fill="#3f3d56"/><path d="m608 418h34v30h-34z" fill="#3f3d56"/><path d="m744 352h34v34h-34z" fill="#b37c57"/><path d="m710 386h34v32h-34z" fill="#3f3d56"/><path d="m642 386h34v32h-34z" fill="#3f3d56"/><path d="m239 446h34v30h-34z" fill="#b37c57"/><path d="m545 414h34v32h-34z" fill="#3f3d56"/><path d="m341 414h34v32h-34z" fill="#3f3d56"/><path d="m307 380h34v34h-34z" fill="#3f3d56"/><path d="m477 414h34v32h-34z" fill="#3f3d56"/><path d="m443 380h34v34h-34z" fill="#3f3d56"/><path d="m409 414h34v32h-34z" fill="#3f3d56"/><path d="m273 414h34v32h-34z" fill="#3f3d56"/><path d="m511 380h34v34h-34z" fill="#b37c57"/><g fill="#3f3d56"><path d="m679.24121 360.15026-17.66389-18.93782 18.93783-17.66389 17.66385 18.93783zm-14.84837-18.83983 14.94636 16.02432 16.02431-14.94637-14.94636-16.02431z" transform="translate(-14.5 -32.65535)"/><path d="m440.16 282.23876h-25.897v-25.897h25.897zm-23.90491-1.99207h21.91284v-21.91284h-21.91284z" transform="translate(-14.5 -32.65535)"/><path d="m921.16 232.23876h-25.897v-25.897h25.897zm-23.90491-1.99207h21.91284v-21.91284h-21.91284z" transform="translate(-14.5 -32.65535)"/><path d="m268.93131 496.7233-1.53054-1.494a78.18382 78.18382 0 0 0 15.68031-27.43219c5.20362-15.65995 7.74564-40.3919-9.69759-69.282-17.84687-29.55907-18.65-53.56778-16.18161-68.50345 2.68667-16.25159 9.54041-25.36119 9.83074-25.74082l1.69973 1.29869c-.06841.08929-6.86262 9.15033-9.44067 24.91732-2.38014 14.55656-1.54986 37.98356 15.92261 66.92226 17.88918 29.62905 15.23906 55.04767 9.86625 71.15357-5.82189 17.45051-15.72992 27.73138-16.14923 28.16062z" transform="translate(-14.5 -32.65535)"/><path d="m538.93131 428.7233-1.53054-1.494a78.18382 78.18382 0 0 0 15.68031-27.43219c5.20362-15.65995 7.74564-40.3919-9.69759-69.282-17.84687-29.55907-18.65-53.56778-16.18161-68.50345 2.68667-16.25159 9.54041-25.36119 9.83074-25.74082l1.69973 1.29869c-.06841.08929-6.86262 9.15033-9.44067 24.91732-2.38014 14.55656-1.54986 37.98356 15.92261 66.92226 17.88918 29.62905 15.23906 55.04767 9.86625 71.15357-5.82189 17.45051-15.72992 27.73138-16.14923 28.16062z" transform="translate(-14.5 -32.65535)"/><path d="m773.93131 402.7233-1.53054-1.494a78.18382 78.18382 0 0 0 15.68031-27.43219c5.20362-15.65995 7.74564-40.3919-9.69759-69.282-17.84687-29.55907-18.65-53.56778-16.18161-68.50345 2.68667-16.25159 9.54041-25.36119 9.83074-25.74082l1.69973 1.29869c-.06841.08929-6.86262 9.15033-9.44067 24.91732-2.38014 14.55656-1.54986 37.98356 15.92261 66.92226 17.88918 29.62905 15.23906 55.04767 9.86625 71.15357-5.82189 17.45051-15.72992 27.73138-16.14923 28.16062z" transform="translate(-14.5 -32.65535)"/><path d="m51.44444 162.34685h94.11111v2.13889h-94.11111z"/><path d="m51.44444 177.34685h94.11111v2.13889h-94.11111z"/><path d="m51.44444 192.34685h94.11111v2.13889h-94.11111z"/><path d="m578.44444 19.34685h94.11111v2.13889h-94.11111z"/><path d="m578.44444 34.34685h94.11111v2.13889h-94.11111z"/><path d="m578.44444 49.34685h94.11111v2.13889h-94.11111z"/><path d="m799.44444 351.34685h94.11111v2.13889h-94.11111z"/><path d="m799.44444 366.34685h94.11111v2.13889h-94.11111z"/><path d="m799.44444 381.34685h94.11111v2.13889h-94.11111z"/><path d="m208.44444 501.34685h94.11111v2.13889h-94.11111z"/><path d="m208.44444 516.34685h94.11111v2.13889h-94.11111z"/><path d="m208.44444 531.34685h94.11111v2.13889h-94.11111z"/></g><path d="m152.36027 143.27622c16.2598-36.47338 40.76678-60.4658 72.83927-71.31137 23.81285-8.05276 51.35162-8.81373 81.85141-2.26253a218.88869 218.88869 0 0 1 63.95154 24.84068c105.8815 61.45019 171.34178 61.99642 207.61168 51.63383 39.769-11.36186 54.323-38.02171 54.46522-38.28984l1.76722.93663c-.14553.2748-15.03078 27.63245-55.60407 39.254-23.39069 6.69972-50.72081 6.9763-81.23068.82211-37.971-7.65958-81.04087-25.36581-128.01354-52.62662a216.90416 216.90416 0 0 0 -63.36665-24.61551c-50.02325-10.74467-117.07727-6.9005-152.44552 72.43284z" fill="#2f2e41" transform="translate(-14.5 -32.65535)"/><circle cx="256" cy="237" fill="#3f3d56" r="36"/><circle cx="528" cy="174" fill="#3f3d56" r="36"/><circle cx="763" cy="142" fill="#3f3d56" r="36"/><path d="m237.5 255.65535h-223v-114h223zm-221-2h219v-110h-219z" fill="#3f3d56" transform="translate(-14.5 -32.65535)"/><path d="m282 59.83258h195v87.16742h-195z" fill="#f2f2f2"/><path d="m332.44444 87.34685h94.11111v2.13889h-94.11111z" fill="#3f3d56"/><path d="m332.44444 102.34685h94.11111v2.13889h-94.11111z" fill="#3f3d56"/><path d="m329.44444 114.34685h94.11111v2.13889h-94.11111z" fill="#3f3d56"/><path d="m518.5 180.65535h-223v-114h223zm-221-2h219v-110h-219z" fill="#3f3d56" transform="translate(-14.5 -32.65535)"/><path d="m785 25.83258h195v87.16742h-195z" fill="#f2f2f2"/><path d="m835.44444 53.34685h94.11111v2.13889h-94.11111z" fill="#3f3d56"/><path d="m835.44444 68.34685h94.11111v2.13889h-94.11111z" fill="#3f3d56"/><path d="m835.44444 83.34685h94.11111v2.13889h-94.11111z" fill="#3f3d56"/><path d="m1021.5 146.65535h-223v-114h223zm-221-2h219v-110h-219z" fill="#3f3d56" transform="translate(-14.5 -32.65535)"/></svg>