<svg height="826.71426" viewBox="0 0 863 826.71426" width="863" xmlns="http://www.w3.org/2000/svg"><path d="m908.58458 346.02969c-44.91639-176.62144-200.11665-304.11743-382.28818-309.23118-96.30863-2.70351-197.65219 29.23779-271.43777 141.01198-131.89969 199.80845 8.10555 337.88223 105.7135 403.49213a610.75776 610.75776 0 0 1 126.24112 113.4651c65.931 78.23772 192.76719 175.45908 343.82337 23.12816 109.48571-110.40964 107.86671-254.21888 77.94796-371.86619z" fill="#f2f2f2" transform="translate(-168.5 -36.64287)"/><path d="m1030.5 739.35713c0 43.35436-189.18913 124-427.5 124s-434.5-75.64564-434.5-119 196.18913-38 434.5-38 427.5-10.35435 427.5 33z" fill="#3f3d56" transform="translate(-168.5 -36.64287)"/><path d="m1030.5 739.35713c0 43.35436-189.18913 124-427.5 124s-434.5-75.64564-434.5-119 196.18913-38 434.5-38 427.5-10.35435 427.5 33z" opacity=".1" transform="translate(-168.5 -36.64287)"/><ellipse cx="431.5" cy="707.21426" fill="#3f3d56" rx="431.5" ry="78.5"/><path d="m594.859 440.238v209.944l35.117 57.231 2.673 4.353h138.563l2.799-271.528z" fill="#2f2e41"/><path d="m594.859 440.238v209.944l35.117 57.231 2.155-267.175z" opacity=".1"/><path d="m260.348 434.639v209.944l-35.117 57.231-2.673 4.353h-138.564l-2.799-271.528z" fill="#2f2e41"/><path d="m260.348 434.639v209.944l-35.117 57.231-2.156-267.175z" opacity=".1"/><path d="m816 430.44v12.597h-753v-18.195l69.981-36.39h621.435z" fill="#2f2e41"/><path d="m816 430.44v12.597h-753v-18.195z" opacity=".1"/><path d="m170.771 493.424h-33.591l-13.996-9.798h62.983z" opacity=".1"/><path d="m170.771 534.013h-33.591l-13.996-9.798h62.983z" opacity=".1"/><path d="m170.771 591.398h-33.591l-13.996-9.798h62.983z" opacity=".1"/><path d="m170.771 648.782h-33.591l-13.996-9.797h62.983z" opacity=".1"/><path d="m684.435 499.022h33.591l13.996-9.797h-62.983z" opacity=".1"/><path d="m684.435 539.611h33.591l13.996-9.797h-62.983z" opacity=".1"/><path d="m684.435 596.996h33.591l13.996-9.797h-62.983z" opacity=".1"/><path d="m684.435 654.381h33.591l13.996-9.798h-62.983z" opacity=".1"/><path d="m701.01569 390.06945-4.66869 29.80755s-22.98411 12.2103-6.8234 12.56943 92.29556 0 92.29556 0 14.72419 0-8.619-12.92856l-4.66865-31.244z" fill="#3f3d56" transform="translate(-168.5 -36.64287)"/><path d="m686.27261 432.123a63.5688 63.5688 0 0 1 10.07442-6.66854l4.66865-29.80753 67.51582.06351 4.66865 29.38488a61.30417 61.30417 0 0 1 10.78841 7.09889c2.99811-.68405 6.2745-3.22612-10.78841-12.67635l-4.66865-31.244-67.51582 1.79564-4.66868 29.8075s-19.31337 10.26151-10.07439 12.246z" opacity=".1" transform="translate(-168.5 -36.64287)"/><rect fill="#3f3d56" height="211.88475" rx="10.6948" width="304.18032" x="413.82432" y="145.67179"/><path d="m424.05943 156.98428h283.71009v158.734h-283.71009z" fill="#f2f2f2"/><circle cx="565.91447" cy="151.9565" fill="#f2f2f2" r="1.79563"/><path d="m886.50463 364.93058v18.574a10.69346 10.69346 0 0 1 -10.6948 10.69481h-282.79071a10.69346 10.69346 0 0 1 -10.6948-10.69481v-18.574z" fill="#3f3d56" transform="translate(-168.5 -36.64287)"/><circle cx="565.91447" cy="343.01191" fill="#f2f2f2" r="6.82341"/><path d="m555.281 415.196v3.592h-193.21v-2.873l.266-.719 4.762-12.928h184.232z" fill="#3f3d56"/><path d="m798.13506 448.32338c-.35194 1.50472-1.68071 3.09212-4.683 4.59324-10.77381 5.3869-32.68053-1.4365-32.68053-1.4365s-16.879-2.873-16.879-10.41468a13.46778 13.46778 0 0 1 1.4796-.87984c4.52961-2.3964 19.54831-8.3097 46.17806.25038a11.10594 11.10594 0 0 1 5.06187 3.31716 5.29644 5.29644 0 0 1 1.523 4.57024z" fill="#3f3d56" transform="translate(-168.5 -36.64287)"/><path d="m798.13506 448.32338c-13.18712 5.05294-24.94133 5.43-37.00441-2.94842-6.0836-4.22333-11.61057-5.2684-15.75848-5.18936 4.52961-2.3964 19.54831-8.3097 46.17806.25038a11.10594 11.10594 0 0 1 5.06187 3.31716 5.29644 5.29644 0 0 1 1.52296 4.57024z" opacity=".1" transform="translate(-168.5 -36.64287)"/><ellipse cx="613.10087" cy="407.29559" fill="#f2f2f2" rx="4.66865" ry="1.43651"/><path d="m555.281 415.196v3.592h-193.21v-2.873l.266-.719z" opacity=".1"/><path d="m834.19367 268.59416c-1.52438-1.52439-21.08732-26.1686-24.39014-30.23362-3.55691-4.065-5.08129-3.30284-7.36787-3.04877s-26.93078 4.57315-29.72549 4.82721c-2.7947.50813-4.57315 1.52439-2.7947 4.065 1.52438 2.28657 17.78447 25.15234 21.34137 30.48768l-64.78633 15.4979-51.32094-86.1277c-2.03251-3.04877-2.54064-4.065-7.11379-3.811s-40.39618 3.30283-42.93682 3.30283c-2.54064.25407-5.33535 1.27032-2.79471 7.36786s43.19089 93.49557 44.20714 96.03621 4.065 6.60566 10.92475 5.08128c7.1138-1.77845 31.504-8.13 44.96934-11.68694 7.11379 12.7032 21.34138 38.61773 24.13609 42.42869 3.5569 5.08128 6.09754 4.065 11.43288 2.54064 4.31909-1.27032 66.56478-23.62795 69.35948-24.89827s4.57316-2.03251 2.54064-4.82722c-1.52438-2.03251-17.78448-24.13609-26.42267-35.569 5.84349-1.52438 26.93079-7.11379 29.21737-7.876 2.54064-.76219 3.04876-2.03251 1.52438-3.5569zm-117.63167 24.13608c-.76219.25406-37.09335 8.89225-38.8718 9.40038-2.03251.50813-2.03251.25406-2.03251-.50813-.50813-.76219-43.19088-89.17648-43.95307-90.19274-.50813-1.01626-.50813-2.03251 0-2.03251s34.29863-3.04877 35.31488-3.04877c1.27032 0 1.01626.25406 1.52439 1.01625 0 0 47.51 82.06268 48.27216 83.333 1.01626 1.27032.50813 1.77845-.25406 2.03251zm102.13375 19.05481c.50812 1.01626 1.27032 1.52438-.7622 2.03251-1.77844.76219-61.22943 20.83325-62.49975 21.34137s-2.03251.76219-3.5569-1.52438-20.83326-35.569-20.83326-35.569l63.26194-16.51416c1.52438-.50813 2.03252-.76219 3.04876.76219 1.01626 1.77845 20.83325 28.70924 21.34139 29.47144zm4.065-44.71527c-1.52438.25406-24.64421 6.09753-24.64421 6.09753l-19.0548-25.91453c-.50813-.76219-1.01626-1.52439.25406-1.77845s22.86576-4.065 23.882-4.31909 1.77844-.50813 3.04876 1.27032c1.27032 1.52438 17.53043 22.35763 18.29261 23.11982s-.25406 1.27033-1.77844 1.52439z" fill="#fb503b" transform="translate(-168.5 -36.64287)"/><circle cx="394.63903" cy="155.89453" fill="#ffb9b9" r="38.24668"/><g transform="translate(-168.5 -36.64287)"><path d="m534.95727 211.66073v60.38949h62.40247s-8.05193-50.32457-4.026-65.42194z" fill="#ffb9b9"/><path d="m658.75572 293.18654s-59.383-29.18825-59.383-31.20123-6.03894-15.09737-10.06491-15.09737-38.24668-11.07141-57.37 5.03245l-2.013 13.08439-73.47387 48.31159 20.12983 73.47388s13.08438 14.09088 9.05842 24.1558 3.01947 61.396 3.01947 61.396l158.01916-5.03245v-68.44145s5.03246-16.10387 8.05194-21.13632 0-20.12983 0-20.12983l24.15579-30.19475s-3.01947-28.18176-20.12983-34.22071z" fill="#d0cde1"/><path d="m458.96717 337.97541 4.52921-24.659s-26.16878 113.7335-23.14931 126.81789 25.16229 33.21422 28.18176 34.22071 31.20124-86.55827 31.20124-86.55827z" opacity=".1"/><path d="m473.56129 310.2969-17.11035 3.01947s-26.16878 113.73354-23.14931 126.81793 25.16229 33.21422 28.18176 34.22071 31.20124-86.55827 31.20124-86.55827z" fill="#d0cde1"/><path d="m664.29142 344.01436 8.55518-16.60711s12.0779 113.73354 4.026 124.805-39.90294 15.21422-39.90294 15.21422l-.35672-82.64915z" opacity=".1"/><path d="m665.80116 314.32286 13.08439 13.08439s12.0779 113.73354 4.026 124.805-39.90294 15.21422-39.90294 15.21422l-.35672-82.64915z" fill="#d0cde1"/><path d="m470.54182 487.4394s-29.18826-11.07141-34.22071 10.06491 12.07789 115.74652 12.07789 115.74652 11.07141 71.46089 18.11685 73.47388 38.24668 3.01947 43.27913-6.03895-15.09737-101.65564-15.09737-101.65564l116.753-2.013s-7.04544 80.51931-11.0714 87.56475-4.026 31.20124 0 31.20124 48.31159-2.013 51.33106-8.05193 20.12983-141.9153 20.12983-141.9153 14.09088-47.3051-2.013-44.28562-199.28528-14.09086-199.28528-14.09086z" fill="#3f3d56"/><path d="m642.65186 683.70523s10.06491-7.04544 15.09737 0 7.04544 15.09737-15.09737 27.17527-39.25317 9.05843-39.25317 7.04544v-29.18825z" fill="#2f2e41"/><path d="m468.52883 680.68576s-10.06491-7.04544-15.09737 0-7.04546 15.09737 15.09737 27.17524 39.25317 9.05842 39.25317 7.04544v-29.18822z" fill="#2f2e41"/><path d="m563.38706 144.31209a32.34794 32.34794 0 0 0 -11.23352 1.60112 43.42778 43.42778 0 0 0 -8.00273 4.2341l-16.88535 10.50019a7.90785 7.90785 0 0 0 -4.76623 7.37l-2.11 15.80182c-.53248 3.98775-1.02331 8.25232.7618 11.85776 1.49 3.00929 4.3314 5.06856 6.66782 7.4804a27.456 27.456 0 0 1 7.23648 14.06091c1.20795 6.59754.43461 14.5425 5.65567 18.75287 2.827 2.27972 6.6803 2.71095 10.30576 2.92289a153.78563 153.78563 0 0 0 29.70069-1.14315 11.81912 11.81912 0 0 0 4.48748-1.25739c1.775-1.04988 2.89248-2.90316 3.93692-4.68137 3.77061-6.41971 7.657-13.24892 7.61606-20.69395-.02026-3.68318-.96268-7.6389.8058-10.8698a42.49668 42.49668 0 0 1 3.03759-3.945c2.18963-3.07677 2.61589-7.03 2.97274-10.7897 1.13978-12.00866-.05177-21.1472-8.90224-29.60633-8.2618-7.89646-20.01732-11.52269-31.28474-11.59537z" fill="#2f2e41"/></g><path d="m300.937 569.703-33.591 170.755h16.795l32.192-167.955z" fill="#2f2e41"/><path d="m408.708 583.7 20.995 195.948h13.996l-12.597-201.547z" fill="#2f2e41"/><path d="m466.093 578.101 29.392 130.166h13.996l-27.992-132.965z" fill="#2f2e41"/><path d="m354.123 578.101-4.199 103.573h11.197l8.398-103.573z" fill="#2f2e41"/><path d="m445.64312 588.15108s-22.394-149.76023 40.58922-153.95911 152.55948 0 152.55948 0 51.78625-4.19889 36.39034 153.95911c0 0 13.99628 46.18773-111.97026 41.98884s-117.56878-41.98884-117.56878-41.98884z" fill="#b37c57" transform="translate(-168.5 -36.64287)"/><path d="m1019.5 649.30794c0 26.1153-15.52513 35.23378-34.67635 35.23378s-34.67635-9.11848-34.67635-35.23378 34.67635-59.33808 34.67635-59.33808 34.67635 33.22278 34.67635 59.33808z" fill="#b37c57" transform="translate(-168.5 -36.64287)"/><path d="m815.416 622.048 14.779-27.039-14.724 23.61.16-9.827 10.186-19.563-10.144 16.962.287-17.675 10.908-15.574-10.863 12.795.18-32.41-1.079 41.067-11.046-16.907 10.912 20.372-1.033 19.74-.031-.524-12.785-17.863 12.746 19.714-.129 2.469-.023.037.011.203-2.622 26.342h3.503l.42-2.128 12.715-19.667-12.684 17.722z" fill="#3f3d56"/><path d="m838.47 704.549h-41.341l-10.684-60.386h60.386z" fill="#2f2e41"/><path d="m145 296.30047h86v100.82759h-86z" fill="#3f3d56"/><path d="m158.34483 311.94613h59.31034v69.53627h-59.31034z" fill="#f2f2f2"/><path d="m362.4444 363.35713-6.02314 10.4315-6.02315-10.4315h-20.05559l26.07874 45.17047 26.07874-45.17047z" fill="#4dba87" transform="translate(-168.5 -36.64287)"/><path d="m362.4444 363.35713-6.02314 10.4315-6.02315-10.4315h-9.62411l15.64724 27.101 15.64724-27.101z" fill="#435466" transform="translate(-168.5 -36.64287)"/></svg>