<svg height="652.02406" viewBox="0 0 887.87606 652.02406" width="887.87606" xmlns="http://www.w3.org/2000/svg"><path d="m1043.93777 757.41073c-2.84541 25.87621-152.22584 23.704-151.99948-.00154 2.84538-25.87468 152.22581-23.70244 151.99948.00154z" fill="#e6e6e6" transform="translate(-156.06197 -123.98797)"/><path d="m785.259 567.02-6.055 13.12-11.102-1.009-7.064-23.213 11.101-6.055z" fill="#ffb8b8"/><path d="m823.372 597.237.239 9.143-17.157 1.01v-11.102z" fill="#ffb8b8"/><path d="m817.555 430.772-4.037 80.739 10.093 87.805-30.278 4.037-19.175-111.017-6.056-75.694z" fill="#2f2e41"/><path d="m1021.05174 525.49168s12.11093 79.7303-13.12018 105.97066-59.54542 72.66559-59.54542 72.66559l-24.22186-30.27733 61.5639-65.60088-12.11093-44.40672-49.453-23.21262 8.074-55.50844 72.6656-1.00924z" fill="#2f2e41" transform="translate(-156.06197 -123.98797)"/><circle cx="805.44435" cy="194.60862" fill="#ffb8b8" r="22.20338"/><path d="m980.682 323.64281s1.00925 31.28657 6.05547 35.32355-18.1664 21.19413-18.1664 21.19413l-15.13867-24.22186v-22.20338z" fill="#ffb8b8" transform="translate(-156.06197 -123.98797)"/><path d="m814.528 242.043 12.253-18.502 6.922 9.419 10.093 28.259-8.074 110.007-47.435 1.01-6.055-126.156 15.138-18.166z" fill="#d0cde1"/><g fill="#2f2e41"><path d="m919.11806 373.09578-8.074-1.00924s-2.01849 1.00924-3.02773 8.07395-13.12018 69.63786-13.12018 69.63786l16.14791 76.70257 18.1664-24.22186-11.10165-42.38826 11.10169-42.38827z" transform="translate(-156.06197 -123.98797)"/><path d="m865.999 248.099h6.055l15.139 81.748-14.129 63.583-14.13-23.213 4.037-25.231-2.018-22.203-7.065-13.121z"/><path d="m932.23823 700.091s6.05547-2.01849 6.05547 2.01849-4.037 16.14791-4.037 16.14791 6.05547 37.342-3.02773 35.32355-16.14791-19.17564-17.15716-24.22186-6.05546-31.28658-6.05546-31.28658-8.074-19.17564-3.02773-20.18488 19.17564-5.04622 19.17564-5.04622-8.07394 25.23105 8.07397 27.24959z" transform="translate(-156.06197 -123.98797)"/><path d="m961.50632 731.37753s16.14791-10.09245 19.17564-2.01849a84.80084 84.80084 0 0 1 4.037 18.1664s4.037 13.12017-12.11093 11.10169-14.12942-2.01849-15.13867-8.074 4.03696-19.1756 4.03696-19.1756z" transform="translate(-156.06197 -123.98797)"/><path d="m974.6265 318.59659-4.037-1.00925s-3.02773-17.15715-10.09244-15.13866-25.23111 4.037-25.23111-4.037 17.15715-15.13867 27.24959-14.12942 27.2496 4.037 26.24036 19.17564-7.52165 29.86536-7.52165 29.86536l-.52605-8.97562z" transform="translate(-156.06197 -123.98797)"/></g><path d="m797.37 254.154 17.158-12.111-17.158-14.129-5.956 7.148z" fill="#d0cde1"/><path d="m829.666 253.145-15.138-11.102 12.11-18.166 7.065 9.083z" fill="#d0cde1"/><path d="m912.05335 372.08654 32.29582-13.12018 7.56933-5.55084 22.708 100.41981 15.13866-45.416-4.5416-58.03155 41.88364 21.69876-14.12942 68.62861-2.01849 26.24036 6.05547 21.19413s21.19413 15.13866 14.12942 31.28657-15.13867 17.15716-15.13867 17.15716-34.3143-32.29582-36.33279-40.36978-5.04622-22.20337-5.04622-22.20337-17.15716 64.59164-37.342 63.58239-20.18488-22.20337-20.18488-22.20337l5.04622-22.20338 8.07395-23.21262-4.037-38.35129z" fill="#2f2e41" transform="translate(-156.06197 -123.98797)"/><path d="m.30042.39886h703.57565v450.60114h-703.57565z" fill="#e6e6e6"/><path d="m20.419 56.91548h663.33848v171.77293h-663.33848z" fill="#fff"/><path d="m185.4182 81.72713h140.28123v8.05267h-140.28123z" fill="#e6e6e6"/><path d="m185.4182 111.10108h216.62475v8.05267h-216.62475z" fill="#b37c57"/><path d="m185.4182 138.77561h176.5444v8.05267h-176.5444z" fill="#e6e6e6"/><path d="m185.4182 166.34556h103.06376v8.05267h-103.06376z" fill="#e6e6e6"/><path d="m185.4182 193.9155h155.54993v8.05267h-155.54993z" fill="#e6e6e6"/><path d="m121.4805 78.86424h17.17729v17.17729h-17.17729z" fill="#e6e6e6"/><path d="m121.4805 106.53877h17.17729v17.17729h-17.17729z" fill="#b37c57"/><path d="m121.4805 134.2133h17.17729v17.17729h-17.17729z" fill="#e6e6e6"/><path d="m121.4805 161.88783h17.17729v17.17729h-17.17729z" fill="#e6e6e6"/><path d="m121.4805 189.56235h17.17729v17.17729h-17.17729z" fill="#e6e6e6"/><path d="m533.73553 117.9903h57.25764v57.25764h-57.25764z" fill="#e6e6e6"/><path d="m20.419 252.54576h663.33848v171.77293h-663.33848z" fill="#fff"/><path d="m151.06361 267.81206h17.17729v17.17729h-17.17729z" fill="#e6e6e6"/><path d="m121.4805 267.81206h17.17729v17.17729h-17.17729z" fill="#b37c57"/><path d="m568.78582 429.36336a65.04552 65.04552 0 0 0 -105.003-9.69993l-4.18616-3.65794a70.59376 70.59376 0 0 1 113.973 10.5262z" fill="#e6e6e6" transform="translate(-156.06197 -123.98797)"/><path d="m571.40549 501.78181-4.6134-3.102a65.07767 65.07767 0 0 0 1.99373-69.31643l4.78387-2.83167a70.63741 70.63741 0 0 1 -2.1642 75.25012z" fill="#b37c57" transform="translate(-156.06197 -123.98797)"/><path d="m460.17592 509.52655a70.58952 70.58952 0 0 1 -.57926-93.52106l4.18616 3.65794a65.03084 65.03084 0 0 0 .53365 86.15416z" fill="#b37c57" transform="translate(-156.06197 -123.98797)"/><path d="m512.776 533.04037a70.70886 70.70886 0 0 1 -52.6-23.51382l4.14055-3.709a65.04336 65.04336 0 0 0 102.47562-7.1378l4.6134 3.102a70.5538 70.5538 0 0 1 -58.62957 31.25862z" fill="#b37c57" transform="translate(-156.06197 -123.98797)"/><path d="m533.73553 305.03194h57.25764v57.25764h-57.25764z" fill="#e6e6e6"/><path d="m119.09476 342.2494h57.25764v57.25764h-57.25764z" fill="#e6e6e6"/><path d="m0 0h703.57565v29.89047h-703.57565z" fill="#b37c57"/><circle cx="22.21219" cy="15.28159" fill="#fff" r="5.53997"/><circle cx="43.24053" cy="15.28159" fill="#fff" r="5.53997"/><circle cx="64.26886" cy="15.28159" fill="#fff" r="5.53997"/></svg>